<svg width="853" height="297" viewBox="0 0 853 297" fill="none" xmlns="http://www.w3.org/2000/svg">
<g clip-path="url(#clip0_28_6475)">
<path d="M0 133.74V0H37.37C46.16 0 53.79 1.68 60.27 5.04C66.74 8.4 71.78 13.16 75.38 19.33C78.98 25.5 80.78 32.67 80.78 40.86V92.52C80.78 100.95 78.98 108.22 75.38 114.32C71.78 120.43 66.74 125.19 60.27 128.61C53.79 132.03 46.16 133.74 37.37 133.74H0ZM19.79 115.97H37.38C44.58 115.97 50.32 113.89 54.6 109.74C58.87 105.59 61.01 99.85 61.01 92.52V40.86C61.01 33.78 58.87 28.13 54.6 23.91C50.32 19.7 44.58 17.59 37.38 17.59H19.79V115.97Z" fill="black"/>
<path d="M102.59 133.74L136.67 0H162.68L196.94 133.74H176.79L168.73 99.85H130.81L122.75 133.74H102.6H102.59ZM134.47 83.36H164.88L155.72 44.89C154.13 38.05 152.82 32.13 151.78 27.12C150.74 22.11 150.04 18.63 149.67 16.68C149.3 18.63 148.63 22.12 147.65 27.12C146.67 32.13 145.33 37.99 143.62 44.71L134.46 83.37L134.47 83.36Z" fill="black"/>
<path d="M249.7 133.74V17.95H213.98V0H305.4V17.95H269.49V133.73H249.7V133.74Z" fill="black"/>
<path d="M322.43 133.74L356.5 0H382.51L416.77 133.74H396.62L388.56 99.85H350.64L342.58 133.74H322.43ZM354.31 83.36H384.72L375.56 44.89C373.97 38.05 372.66 32.13 371.62 27.12C370.58 22.11 369.88 18.63 369.51 16.68C369.14 18.63 368.47 22.12 367.49 27.12C366.51 32.13 365.17 37.99 363.46 44.71L354.3 83.37L354.31 83.36Z" fill="black"/>
<path d="M435 295.12V277.15H461.95V179.24H435V161.27H509.26V179.24H482.12V277.15H509.26V295.12H435Z" fill="black"/>
<path d="M582.6 296.95C573.68 296.95 565.94 295.42 559.41 292.37C552.87 289.32 547.83 284.98 544.28 279.35C540.73 273.73 538.96 267.13 538.96 259.55H558.76C558.76 265.54 560.93 270.37 565.27 274.03C569.61 277.7 575.45 279.53 582.78 279.53C590.11 279.53 595.31 277.7 599.46 274.03C603.61 270.36 605.69 265.53 605.69 259.55C605.69 254.66 604.34 250.41 601.66 246.81C598.97 243.21 595.3 240.73 590.66 239.38L572.87 234.06C563.09 231.25 555.51 226.51 550.13 219.85C544.75 213.19 542.06 205.27 542.06 196.11C542.06 184.99 545.73 176.1 553.06 169.43C560.39 162.77 570.3 159.44 582.76 159.44C595.22 159.44 604.97 162.71 612.37 169.25C619.76 175.79 623.46 184.62 623.46 195.75H603.66C603.66 190.01 601.76 185.42 597.97 182C594.18 178.58 589.05 176.87 582.57 176.87C576.09 176.87 570.96 178.55 567.17 181.91C563.38 185.27 561.49 189.89 561.49 195.75C561.49 200.27 562.83 204.18 565.52 207.48C568.21 210.78 571.94 213.1 576.7 214.45L595.03 219.95C604.56 222.76 611.99 227.59 617.31 234.43C622.63 241.28 625.29 249.53 625.29 259.18C625.29 266.76 623.52 273.39 619.97 279.07C616.42 284.75 611.44 289.15 605.03 292.27C598.61 295.39 591.12 296.95 582.57 296.95H582.6Z" fill="black"/>
<path d="M682.16 295.12V179.24H646.41V161.27H737.9V179.24H701.96V295.12H682.16Z" fill="black"/>
<path d="M754.95 295.12L789.05 161.27H815.09L849.38 295.12H829.21L821.14 261.2H783.18L775.11 295.12H754.94H754.95ZM786.85 244.7H817.29L808.12 206.2C806.53 199.36 805.22 193.43 804.18 188.41C803.14 183.4 802.44 179.91 802.07 177.96C801.7 179.92 801.03 183.4 800.05 188.41C799.07 193.42 797.73 199.29 796.02 206.01L786.85 244.7Z" fill="black"/>
<path d="M417 162H0V296H417V162Z" fill="black"/>
</g>
<defs>
<clipPath id="clip0_28_6475">
<rect width="852.48" height="296.95" fill="white"/>
</clipPath>
</defs>
</svg>
